Coordinates
version=1
nRows=10
nColumns=22
inDegrees=yes

Units are S.I. units (second, meters, Newtons, ...)
If the header above contains a line with 'inDegrees', this indicates whether rotational values are in degrees (yes) or radians (no).

endheader
time	pelvis_tilt	pelvis_list	pelvis_rotation	pelvis_tx	pelvis_ty	pelvis_tz	hip_flexion_r	hip_adduction_r	hip_rotation_r	knee_angle_r	ankle_angle_r	subtalar_angle_r	hip_flexion_l	hip_adduction_l	hip_rotation_l	knee_angle_l	ankle_angle_l	subtalar_angle_l	lumbar_extension	lumbar_bending	lumbar_rotation
      0.01000000	      0.78835061	      1.57467437	    170.21901204	      0.17998533	      0.94684955	      1.22012177	      1.55244084	      1.64544416	     -3.33231972	     -7.12467351	      7.77242173	     -1.97881332	      4.47037591	     -0.72158188	    -11.70167372	    -13.59475992	     10.50571004	     -2.65291468	     -7.36633420	     -1.59477829	    -11.85091686
      0.02000000	      0.80270596	      1.56368766	    170.26096629	      0.17995837	      0.94680693	      1.22030841	      1.54268083	      1.62760049	     -3.33424870	     -7.08092656	      7.78912313	     -1.96252358	      4.47441803	     -0.70003489	    -11.66387216	    -13.56461650	     10.53532405	     -2.61707325	     -7.34282380	     -1.58061222	    -11.78015396
      0.03000000	      0.81798384	      1.54793246	    170.31003459	      0.17994769	      0.94676609	      1.22053451	      1.54010339	      1.60224700	     -3.35334514	     -7.04572279	      7.79803835	     -1.95100252	      4.47345301	     -0.66957262	    -11.62326434	    -13.51594841	     10.54087989	     -2.58518633	     -7.32160196	     -1.56687905	    -11.70711445
      0.04000000	      0.83631623	      1.52872097	    170.36531767	      0.17993668	      0.94672452	      1.22077841	      1.53883159	      1.57231174	     -3.38357252	     -7.00704306	      7.80597825	     -1.94214753	      4.47197529	     -0.63460373	    -11.57652247	    -13.45799970	     10.53418786	     -2.55592389	     -7.29931848	     -1.55688420	    -11.62442860
      0.05000000	      0.85851227	      1.49470487	    170.43121019	      0.17994418	      0.94668509	      1.22104407	      1.55289197	      1.52588004	     -3.42417252	     -6.98468113	      7.81112101	     -1.92298490	      4.45218488	     -0.57403670	    -11.47396258	    -13.34333269	     10.48992460	     -2.48896923	     -7.27678556	     -1.56457125	    -11.56190901
      0.06000000	      0.88040952	      1.48137671	    170.49505450	      0.17994861	      0.94663831	      1.22130371	      1.54513226	      1.50267844	     -3.46840498	     -6.92826314	      7.82158121	     -1.91805387	      4.46559973	     -0.54916516	    -11.45491660	    -13.30548545	     10.47804476	     -2.47417978	     -7.26125951	     -1.55065365	    -11.46124779
      0.07000000	      0.91308748	      1.46552054	    170.55814801	      0.17997159	      0.94658197	      1.22154748	      1.55080608	      1.47988130	     -3.51758973	     -6.87160451	      7.82489245	     -1.91216386	      4.47639553	     -0.51965416	    -11.41370683	    -13.23549002	     10.45983913	     -2.45742227	     -7.24166309	     -1.54327847	    -11.35961530
      0.08000000	      0.94853353	      1.45049554	    170.62474452	      0.17999098	      0.94652191	      1.22179943	      1.56020925	      1.45737508	     -3.56561448	     -6.81879893	      7.82528587	     -1.90561316	      4.48901343	     -0.48998060	    -11.36797221	    -13.16277077	     10.43695852	     -2.44279527	     -7.22169663	     -1.53526482	    -11.26451674
      0.09000000	      0.99826195	      1.42611523	    170.70122828	      0.18003168	      0.94645048	      1.22206348	      1.59622695	      1.42667792	     -3.62905313	     -6.78358564	      7.81327456	     -1.88512384	      4.50151475	     -0.44402732	    -11.25975507	    -13.04922685	     10.37795428	     -2.40762643	     -7.19338944	     -1.53723468	    -11.20403236
      0.10000000	      1.04545107	      1.41671476	    170.77792261	      0.18005270	      0.94637319	      1.22231996	      1.61649927	      1.41256419	     -3.69902910	     -6.73124168	      7.81785140	     -1.86499439	      4.52836368	     -0.42197249	    -11.20052889	    -12.97946153	     10.35324228	     -2.37879454	     -7.17157624	     -1.52339157	    -11.13064339
